<svg xmlns="http://www.w3.org/2000/svg" width="1600" height="900" viewBox="0 0 1600 900" role="img" aria-label="RocChat desktop screenshot">
  <defs>
    <linearGradient id="bg" x1="0" y1="0" x2="1" y2="1">
      <stop offset="0%" stop-color="#081018"/>
      <stop offset="60%" stop-color="#0f2231"/>
      <stop offset="100%" stop-color="#1b5f6b"/>
    </linearGradient>
  </defs>
  <rect width="1600" height="900" fill="url(#bg)"/>
  <circle cx="1380" cy="120" r="200" fill="#d4af37" opacity="0.15"/>
  <circle cx="140" cy="780" r="240" fill="#40e0d0" opacity="0.14"/>
  <rect x="58" y="56" width="1484" height="788" rx="34" fill="#0a141d" stroke="#d4af37" stroke-opacity="0.3"/>
  <rect x="86" y="96" width="360" height="708" rx="28" fill="#0f1d2a"/>
  <text x="124" y="148" fill="#f5d57a" font-family="Montserrat, sans-serif" font-size="34" font-weight="700">RocChat</text>
  <text x="124" y="182" fill="#7fe7db" font-family="JetBrains Mono, monospace" font-size="16" letter-spacing="2">MESSAGES • CALLS • SETTINGS</text>
  <rect x="116" y="220" width="300" height="92" rx="22" fill="#153247"/>
  <rect x="116" y="332" width="300" height="92" rx="22" fill="#112838"/>
  <rect x="116" y="444" width="300" height="92" rx="22" fill="#112838"/>
  <rect x="474" y="96" width="654" height="708" rx="28" fill="#0e1a25"/>
  <text x="522" y="156" fill="#f8fafc" font-family="Montserrat, sans-serif" font-size="28" font-weight="700">Freedom Network</text>
  <text x="522" y="188" fill="#8da6b8" font-family="Montserrat, sans-serif" font-size="18">Secure conversation • screenshot alerts • message deletion events</text>
  <rect x="520" y="236" width="278" height="110" rx="24" fill="#133143"/>
  <rect x="804" y="378" width="272" height="118" rx="24" fill="#d4af37"/>
  <rect x="520" y="540" width="322" height="110" rx="24" fill="#133143"/>
  <text x="552" y="286" fill="#f8fafc" font-family="Montserrat, sans-serif" font-size="23">Global search stays local</text>
  <text x="834" y="432" fill="#0b1620" font-family="Montserrat, sans-serif" font-size="24" font-weight="700">Pinned transport</text>
  <text x="834" y="468" fill="#243b4a" font-family="JetBrains Mono, monospace" font-size="16">native trust hardening</text>
  <text x="552" y="590" fill="#f8fafc" font-family="Montserrat, sans-serif" font-size="23">Encrypted plaintext cache at rest</text>
  <rect x="1152" y="96" width="338" height="708" rx="28" fill="#0f1d2a"/>
  <text x="1192" y="156" fill="#f8fafc" font-family="Montserrat, sans-serif" font-size="28" font-weight="700">Calls</text>
  <rect x="1192" y="214" width="258" height="164" rx="24" fill="#123e44"/>
  <rect x="1192" y="408" width="258" height="164" rx="24" fill="#153247"/>
  <text x="1192" y="704" fill="#8da6b8" font-family="Montserrat, sans-serif" font-size="18">Install-ready desktop experience with real PWA previews</text>
</svg>