<svg xmlns="http://www.w3.org/2000/svg" width="720" height="1280" viewBox="0 0 720 1280" role="img" aria-label="RocChat mobile screenshot">
  <defs>
    <linearGradient id="bg" x1="0" y1="0" x2="1" y2="1">
      <stop offset="0%" stop-color="#081018"/>
      <stop offset="55%" stop-color="#10263a"/>
      <stop offset="100%" stop-color="#0f7c86"/>
    </linearGradient>
  </defs>
  <rect width="720" height="1280" fill="url(#bg)"/>
  <circle cx="610" cy="118" r="180" fill="#f2c14d" opacity="0.12"/>
  <circle cx="120" cy="1160" r="220" fill="#37d4c8" opacity="0.14"/>
  <rect x="54" y="70" width="612" height="1140" rx="42" fill="#0b1620" stroke="#d4af37" stroke-opacity="0.35"/>
  <text x="100" y="146" fill="#f5d57a" font-family="Montserrat, sans-serif" font-size="36" font-weight="700">RocChat</text>
  <text x="100" y="184" fill="#7fe7db" font-family="JetBrains Mono, monospace" font-size="18" letter-spacing="2">END-TO-END ENCRYPTED</text>
  <rect x="88" y="220" width="544" height="92" rx="24" fill="#102331"/>
  <circle cx="138" cy="266" r="28" fill="#d4af37"/>
  <text x="188" y="258" fill="#f8fafc" font-family="Montserrat, sans-serif" font-size="26" font-weight="600">Freedom Network</text>
  <text x="188" y="290" fill="#8da6b8" font-family="Montserrat, sans-serif" font-size="18">7 unread • last seen just now</text>
  <rect x="88" y="340" width="544" height="430" rx="32" fill="#0f1d2a"/>
  <rect x="120" y="386" width="250" height="110" rx="26" fill="#153247"/>
  <text x="146" y="434" fill="#e5eef6" font-family="Montserrat, sans-serif" font-size="23">Screenshot alert</text>
  <text x="146" y="468" fill="#7fe7db" font-family="JetBrains Mono, monospace" font-size="16">system notification rendered</text>
  <rect x="330" y="530" width="258" height="118" rx="28" fill="#d4af37"/>
  <text x="356" y="578" fill="#0b1620" font-family="Montserrat, sans-serif" font-size="24" font-weight="700">Burn after read</text>
  <text x="356" y="614" fill="#224055" font-family="JetBrains Mono, monospace" font-size="16">secured at transport + rest</text>
  <rect x="88" y="806" width="544" height="254" rx="30" fill="#0f1d2a"/>
  <text x="120" y="862" fill="#f8fafc" font-family="Montserrat, sans-serif" font-size="28" font-weight="700">Calls</text>
  <rect x="120" y="892" width="220" height="126" rx="24" fill="#133143"/>
  <rect x="368" y="892" width="220" height="126" rx="24" fill="#123e44"/>
  <circle cx="230" cy="955" r="36" fill="#7fe7db" opacity="0.35"/>
  <circle cx="478" cy="955" r="36" fill="#f7d778" opacity="0.35"/>
  <text x="120" y="1126" fill="#8da6b8" font-family="Montserrat, sans-serif" font-size="20">Installable PWA • offline queue • local lock</text>
</svg>